<svg xmlns="http://www.w3.org/2000/svg" width="54" height="48" fill="none"><path fill="#2BDEFD" fill-rule="evenodd" d="M5.175 27.572 0 41.642l2.337.86L5.93 32.73C8.854 39.108 15.855 47.9 28.258 48h.035l.035-.002c5.678-.272 18.064-3.944 21.49-16.735l-2.404-.644c-3.01 11.234-13.955 14.628-19.17 14.89-11.356-.109-17.735-8.43-20.255-14.265l11.008 4 .85-2.34-14.672-5.332Z" clip-rule="evenodd"/><path fill="#D7F9FF" fill-rule="evenodd" d="M47.589 15.27C44.665 8.892 37.665.1 25.262 0h-.035l-.035.002C19.513.274 7.128 3.946 3.7 16.737l2.405.644C9.116 6.147 20.06 2.753 25.276 2.491c11.355.109 17.735 8.43 20.255 14.265l-11.008-4-.85 2.34 14.672 5.332 5.175-14.07-2.337-.86-3.594 9.772Z" clip-rule="evenodd"/></svg>