<svg width="546" height="354" fill="none" xmlns="http://www.w3.org/2000/svg"><path d="M.573 352.704H544.72V94.766L490.8 48.48H.572v304.224Z" stroke="#2BDEFD" stroke-width=".96"/><path d="M1.92 3.002h.586L4.284 8H3.72l-.464-1.35H1.17L.707 8H.143L1.92 3.002ZM3.1 6.18 2.22 3.63h-.014l-.87 2.55h1.763Zm1.724 1.036V3.788l.785-.786h2.256l.786.786v3.427L7.864 8H5.608l-.785-.785Zm2.799.3.485-.479v-3.07l-.485-.478H5.85l-.486.478v3.07l.486.478h1.77Zm1.6-4.513h.564L11.27 7.35h.014l1.485-4.348h.564L11.571 8h-.586L9.222 3.002Zm4.65 4.341v-.457h.536v.279l.342.35h1.714l.357-.365V6.03l-.357-.35h-1.92l-.658-.657V3.659l.657-.657h2.1l.656.657v.464h-.528v-.286l-.357-.35h-1.635l-.357.35v1.007l.357.35h1.92l.657.657v1.478l-.67.671h-2.157l-.657-.657Zm4.3-.3 2.613-2.584v-.622l-.357-.35h-1.385l-.357.35v.379h-.542v-.557l.657-.657h1.87l.657.657v.957L18.715 7.2v.314h2.642V8h-3.185v-.957Zm4.111-4.04h.543v2.262h1.164l1.292-2.263h.586l-1.421 2.492L25.975 8h-.6l-1.378-2.249h-1.17V8h-.544V3.002Zm4.221 4.04 2.614-2.584v-.622l-.357-.35h-1.386l-.357.35v.379h-.542v-.557l.657-.657h1.87l.657.657v.957L27.047 7.2v.314h2.642V8h-3.184v-.957Zm3.897.3v-.557h.543v.379l.357.35h1.514l.357-.35V6.072l-.343-.342h-1.428v-.486h1.428l.343-.343V3.837l-.357-.35h-1.471l-.357.35v.379h-.543v-.557l.657-.657h1.956l.657.657v1.4l-.435.428.435.435v1.421L33.057 8h-1.999l-.657-.657Zm5.907-.3L38.92 4.46v-.622l-.357-.35h-1.385l-.357.35v.379h-.543v-.557l.657-.657h1.87l.658.657v.957L36.85 7.2v.314h2.642V8h-3.184v-.957Zm4.11-4.04h2.807l.657.656v1.385l-.343.343.564.564V7.3l-.7.699H40.42V3.002Zm2.578 2.255.357-.357V3.823l-.357-.35h-2.049v1.785h2.05Zm.165 2.27.414-.406v-1l-.414-.407h-2.214V7.53h2.214Zm1.874-4.526h2.884l.786.786v3.427L47.919 8h-2.884V3.002Zm2.642 4.512.485-.478v-3.07l-.486-.478h-2.099v4.026h2.1Zm2.099-4.512h3.227v.486H50.32v1.756h2.477v.486H50.32v1.784h2.684V8h-3.227V3.002Zm4.156 0h3.155v.486h-2.613v1.799h2.27v.485h-2.27V8h-.542V3.002Zm3.94 0h2.884l.785.786v3.427L60.756 8H57.87V3.002Zm2.64 4.512.486-.478v-3.07l-.485-.478h-2.1v4.026h2.1ZM.393 16.951h2.086v.471H.393v-.471Zm2.866 1.092 2.613-2.584v-.621l-.357-.35H4.13l-.357.35v.378H3.23v-.557l.657-.657h1.87l.657.657v.957L3.801 18.2v.315h2.642V19H3.258v-.957Zm3.897.3v-.557h.543v.379l.357.35h1.513l.357-.35v-1.093l-.342-.342H8.155v-.486h1.428l.342-.343v-1.063l-.357-.35h-1.47l-.357.35v.378h-.543v-.557l.657-.657H9.81l.657.657v1.4l-.435.428.435.435v1.421L9.811 19H7.812l-.657-.657Zm4.045.45v-.314l.207-.207h.314l.207.207v.314L11.72 19h-.314l-.207-.207Zm1.423-.45v-.557h.543v.379l.357.35h1.5l.356-.35v-1.428l-.357-.35h-2.327v-2.385h3.127v.478h-2.599v1.421h2.035l.664.664v1.778l-.657.657H13.28l-.657-.657Zm4.192 0v-1.47l.45-.45-.379-.379V14.66l.657-.657h1.999l.657.657v1.385l-.379.378.45.45v1.471l-.657.657h-2.142l-.656-.657Zm2.484-2.12.357-.35v-1.035l-.357-.35h-1.513l-.357.35v1.035l.357.35h1.513Zm.072 2.292.357-.35v-1.121l-.357-.35h-1.657l-.357.35v1.12l.357.35h1.657Zm1.83-.172v-1.47l.45-.45-.38-.379V14.66l.657-.657h2l.656.657v1.385l-.378.378.45.45v1.471l-.657.657h-2.142l-.657-.657Zm2.484-2.12.357-.35v-1.035l-.357-.35H22.17l-.357.35v1.035l.357.35h1.514Zm.071 2.292.357-.35v-1.121l-.357-.35H22.1l-.357.35v1.12l.357.35h1.656Zm2.772-3.956-1.12.578v-.5l1.163-.635h.5V19h-.543v-4.441Zm1.653 3.784V14.66l.656-.657h2l.656.657v.557h-.542v-.378l-.357-.35H29.08l-.357.35v1.685l.579-.579h1.563l.657.657v1.742l-.657.657h-2.028l-.656-.657Zm2.441.172.357-.35v-1.386l-.357-.35h-1.178l-.72.722v1.014l.356.35h1.542Zm4.053-3.756v-.271h-2.584v-.486h3.127v.793L33.262 19h-.572l1.985-4.241Zm2.235-.2-1.12.578v-.5l1.163-.635h.5V19h-.543v-4.441Zm1.653 3.784V14.66l.656-.657h2l.657.657v.557h-.543v-.378l-.357-.35h-1.514l-.357.35v1.685l.579-.579h1.563l.657.657v1.742l-.657.657H39.22l-.656-.657Zm2.441.172.357-.35v-1.386l-.357-.35h-1.178l-.72.722v1.014l.356.35h1.542Zm1.683-.172v-.557h.543v.379l.357.35H45.1l.357-.35v-1.093l-.343-.342h-1.427v-.486h1.428l.342-.343v-1.063l-.357-.35h-1.47l-.358.35v.378h-.542v-.557l.657-.657h1.956l.657.657v1.4l-.436.428.436.435v1.421l-.657.657h-2l-.656-.657Zm4.135 0v-.557h.542v.379l.357.35h1.514l.357-.35v-1.093l-.343-.342h-1.428v-.486h1.428l.343-.343v-1.063l-.357-.35h-1.47l-.358.35v.378h-.542v-.557l.656-.657h1.957l.657.657v1.4l-.436.428.436.435v1.421l-.657.657h-2l-.656-.657Zm4.241 0v-1.47l.45-.45-.378-.379V14.66l.657-.657h1.999l.657.657v1.385l-.379.378.45.45v1.471l-.657.657H51.72l-.657-.657Zm2.485-2.12.357-.35v-1.035l-.357-.35h-1.514l-.357.35v1.035l.357.35h1.514Zm.072 2.292.357-.35v-1.121l-.357-.35h-1.657l-.357.35v1.12l.357.35h1.657Zm1.865-.229v-3.57l.714-.714h2.056l.714.714v3.57l-.714.714H56.2l-.714-.714Zm2.527.229.414-.407v-3.213l-.414-.407h-1.57l-.415.407v3.213l.414.407h1.571Zm1.956-.229v-3.57l.714-.714h2.056l.714.714v3.57l-.714.714h-2.056l-.714-.714Zm2.528.229.414-.407v-3.213l-.414-.407h-1.571l-.414.407v3.213l.414.407h1.57Zm4.09-.536H64.13v-.842l2.135-3.135h.864v3.492h.607v.485h-.607V19h-.543v-1.021Zm0-.471v-3.049h-.043l-1.885 2.763v.286h1.928Zm1.712.535 2.613-2.584v-.621l-.357-.35h-1.385l-.357.35v.378h-.543v-.557l.657-.657h1.87l.657.657v.957L68.84 18.2v.315h2.642V19h-3.184v-.957ZM72.5 19h-.085l-.207-.207v-.314l.207-.207h.314l.207.207V19l-.357.885h-.293l.214-.885ZM.393 27.95h2.085v.472H.393v-.471Zm5.114 1.029H3.051v-.842l2.135-3.135h.864v3.492h.607v.485H6.05V30h-.543v-1.021Zm0-.471v-3.049h-.043L3.58 28.222v.286h1.927Zm1.826.835V25.66l.657-.657h1.999l.657.657v.557h-.543v-.379l-.357-.35H8.232l-.357.35v1.686l.579-.579h1.563l.657.657v1.742l-.657.657H7.99l-.657-.657Zm2.442.172.357-.35v-1.386l-.357-.35H8.597l-.722.722v1.014l.357.35h1.543Zm1.592.278v-.314l.207-.207h.314l.207.207v.314l-.207.207h-.314l-.207-.207Zm1.495-.45V25.66l.657-.657h1.999l.657.657v.557h-.543v-.379l-.357-.35h-1.513l-.357.35v1.686l.578-.579h1.564l.656.657v1.742l-.656.657h-2.028l-.657-.657Zm2.442.172.357-.35v-1.386l-.357-.35h-1.178l-.721.722v1.014l.357.35h1.542Zm1.682-.172v-.557h.543v.379l.357.35H19.4l.357-.35v-1.093l-.343-.342h-1.428v-.486h1.428l.343-.343v-1.064l-.357-.35h-1.471l-.357.35v.379h-.543v-.557l.657-.657h1.956l.657.657v1.4l-.435.428.435.435v1.421l-.657.657h-1.999l-.657-.657Zm4.164-.3 2.613-2.584v-.622l-.357-.35H22.02l-.357.35v.379h-.543v-.557l.657-.657h1.87l.657.657v.957L21.692 29.2v.315h2.642V30H21.15v-.957Zm3.897.3v-.557h.542v.379l.357.35h1.514l.357-.35v-1.093l-.343-.342h-1.428v-.486h1.428l.343-.343v-1.064l-.357-.35h-1.471l-.357.35v.379h-.543v-.557l.657-.657h1.957l.656.657v1.4l-.435.428.435.435v1.421l-.656.657h-2l-.656-.657Zm4.134 0v-.557h.543v.379l.357.35h1.514l.357-.35v-1.093l-.343-.342H30.18v-.486h1.428l.342-.343v-1.064l-.357-.35h-1.47l-.357.35v.379h-.543v-.557l.657-.657h1.956l.657.657v1.4l-.435.428.435.435v1.421l-.657.657h-1.999l-.657-.657Zm5.184-3.784-1.12.578v-.5l1.163-.635h.5V30h-.543v-4.441Zm1.688 3.784v-.557h.543v.379l.357.35h1.47l.358-.35V27.58l-.507.507h-1.635l-.657-.657v-1.771l.657-.657h2.027l.657.657v3.684l-.657.657H36.71l-.657-.657Zm2.078-1.742.65-.65v-1.114l-.357-.35h-1.542l-.357.35v1.414l.357.35h1.249Zm2.189 1.685v-3.57l.714-.714h2.056l.714.714v3.57L43.09 30h-2.056l-.714-.714Zm2.527.229.414-.407v-3.213l-.414-.407h-1.57l-.415.407v3.213l.414.407h1.571Zm1.813-.172v-.557h.543v.379l.357.35h1.513l.357-.35v-1.093l-.342-.342H45.66v-.486h1.428l.342-.343v-1.064l-.357-.35h-1.47l-.357.35v.379h-.543v-.557l.657-.657h1.956l.657.657v1.4l-.435.428.435.435v1.421l-.657.657h-1.999l-.657-.657Zm4.313 0v-.557h.543v.379l.357.35h1.47l.358-.35V27.58l-.507.507h-1.635l-.657-.657v-1.771l.657-.657h2.028l.656.657v3.684l-.657.657H49.63l-.657-.657Zm2.078-1.742.65-.65v-1.114l-.357-.35h-1.542l-.357.35v1.414l.357.35h1.249Zm4.323 1.378h-2.456v-.842l2.135-3.135h.864v3.492h.607v.485h-.607V30h-.543v-1.021Zm0-.471v-3.049h-.042l-1.885 2.763v.286h1.927Zm1.683.835v-.557h.543v.379l.357.35h1.514l.357-.35v-1.093l-.343-.342h-1.428v-.486h1.428l.343-.343v-1.064l-.358-.35H58l-.357.35v.379H57.1v-.557l.657-.657h1.956l.657.657v1.4l-.435.428.435.435v1.421l-.657.657h-1.999l-.657-.657Zm6.505-3.584v-.271h-2.584v-.486h3.127v.793L62.149 30h-.572l1.985-4.241Zm1.293 3.584v-1.47l.45-.45-.379-.379V25.66l.657-.657h2l.656.657v1.385l-.378.378.45.45v1.471l-.657.657h-2.142l-.657-.657Zm2.485-2.12.357-.35v-1.036l-.357-.35h-1.514l-.357.35v1.036l.357.35h1.514Zm.071 2.292.357-.35v-1.121l-.357-.35h-1.656l-.357.35v1.12l.357.35h1.656Z" fill="#2BDEFD"/></svg>