<svg xmlns="http://www.w3.org/2000/svg" width="48" height="48" fill="none"><path fill="#D7F9FF" fill-rule="evenodd" d="M10.667 5.333v5.334h2.666V5.333h20v5.334H36V5.333h6.054l3.28 3.288v6.045H2.666V8.621l3.28-3.288h4.72Zm-8 12v20.712l3.28 3.288h15.685v2.666H4.84L0 39.147V7.518l4.84-4.852h5.827V0h2.666v2.666h20V0H36v2.666h7.16L48 7.518v18.189h-2.667v-8.374H2.667Z" clip-rule="evenodd"/><path fill="#2BDEFD" fill-rule="evenodd" d="m40.943 35.61-5.61 5.61-4.276-4.276 1.886-1.886 2.39 2.39 3.724-3.723 1.886 1.885Z" clip-rule="evenodd"/><circle cx="36" cy="37.333" r="9.333" stroke="#2BDEFD" stroke-width="2.667"/></svg>