<svg xmlns="http://www.w3.org/2000/svg" width="56" height="49" fill="none"><path fill="#2BDEFD" fill-rule="evenodd" d="M6.544 29.864v-2.618h19.633v2.618H6.544Zm0 18.324V45.57h19.633v2.618H6.544ZM0 39.026v-2.618h19.633v2.618H0Z" clip-rule="evenodd"/><path fill="#D7F9FF" fill-rule="evenodd" d="M33.907 2.299 35.029 0l-2.52.435c-7.975 1.374-12.924 5.474-15.823 10.082-2.87 4.56-3.704 9.572-3.587 12.85l2.616-.094c-.101-2.83.635-7.307 3.186-11.362 2.226-3.538 5.853-6.793 11.63-8.363-1.815 4.888-2.796 11.637-.703 18.377 2.356 7.582 8.53 14.922 21.215 19.548-2.9 1.93-8.908 4.4-18.322 4.12v2.619c12.402.35 19.668-3.844 21.923-6.346L56 40.362l-1.928-.619C40.524 35.398 34.518 28.198 32.328 21.15c-2.217-7.137-.605-14.38 1.579-18.85Z" clip-rule="evenodd"/></svg>